<mxfile host="app.diagrams.net" agent="Mozilla/5.0 (Windows NT 10.0; Win64; x64) AppleWebKit/537.36 (KHTML, like Gecko) Chrome/132.0.0.0 Safari/537.36" version="26.0.10">
  <diagram name="Page-1" id="Vp42OPpKhCTEOME2mzC9">
    <mxGraphModel dx="2074" dy="1098" grid="1" gridSize="10" guides="1" tooltips="1" connect="1" arrows="1" fold="1" page="1" pageScale="1" pageWidth="1169" pageHeight="827" math="0" shadow="0">
      <root>
        <mxCell id="0" />
        <mxCell id="1" parent="0" />
        <mxCell id="ZUl6cm57hjfB8yTvaPR6-6" value="" style="rounded=0;whiteSpace=wrap;html=1;fillColor=#d5e8d4;strokeColor=#82b366;" vertex="1" parent="1">
          <mxGeometry x="320" y="350" width="520" height="90" as="geometry" />
        </mxCell>
        <mxCell id="ZUl6cm57hjfB8yTvaPR6-24" style="edgeStyle=orthogonalEdgeStyle;rounded=0;orthogonalLoop=1;jettySize=auto;html=1;exitX=0.5;exitY=1;exitDx=0;exitDy=0;" edge="1" parent="1" source="ZUl6cm57hjfB8yTvaPR6-2" target="ZUl6cm57hjfB8yTvaPR6-8">
          <mxGeometry relative="1" as="geometry">
            <Array as="points">
              <mxPoint x="450" y="470" />
              <mxPoint x="520" y="470" />
            </Array>
          </mxGeometry>
        </mxCell>
        <mxCell id="ZUl6cm57hjfB8yTvaPR6-2" value="INPUT DATA" style="rounded=0;whiteSpace=wrap;html=1;fillColor=#fff2cc;strokeColor=#d6b656;" vertex="1" parent="1">
          <mxGeometry x="390" y="380" width="120" height="40" as="geometry" />
        </mxCell>
        <mxCell id="ZUl6cm57hjfB8yTvaPR6-18" style="edgeStyle=orthogonalEdgeStyle;rounded=0;orthogonalLoop=1;jettySize=auto;html=1;" edge="1" parent="1" source="ZUl6cm57hjfB8yTvaPR6-3" target="ZUl6cm57hjfB8yTvaPR6-8">
          <mxGeometry relative="1" as="geometry">
            <Array as="points">
              <mxPoint x="580" y="470" />
              <mxPoint x="520" y="470" />
            </Array>
          </mxGeometry>
        </mxCell>
        <mxCell id="ZUl6cm57hjfB8yTvaPR6-3" value="PROGRAM" style="rounded=0;whiteSpace=wrap;html=1;fillColor=#fff2cc;strokeColor=#d6b656;" vertex="1" parent="1">
          <mxGeometry x="520" y="380" width="120" height="40" as="geometry" />
        </mxCell>
        <mxCell id="ZUl6cm57hjfB8yTvaPR6-15" style="edgeStyle=orthogonalEdgeStyle;rounded=0;orthogonalLoop=1;jettySize=auto;html=1;exitX=1;exitY=0.5;exitDx=0;exitDy=0;" edge="1" parent="1" source="ZUl6cm57hjfB8yTvaPR6-5" target="ZUl6cm57hjfB8yTvaPR6-11">
          <mxGeometry relative="1" as="geometry" />
        </mxCell>
        <mxCell id="ZUl6cm57hjfB8yTvaPR6-16" style="edgeStyle=orthogonalEdgeStyle;rounded=0;orthogonalLoop=1;jettySize=auto;html=1;exitX=1;exitY=0.5;exitDx=0;exitDy=0;entryX=1;entryY=0.5;entryDx=0;entryDy=0;" edge="1" parent="1" source="ZUl6cm57hjfB8yTvaPR6-5" target="ZUl6cm57hjfB8yTvaPR6-10">
          <mxGeometry relative="1" as="geometry">
            <Array as="points">
              <mxPoint x="880" y="400" />
              <mxPoint x="880" y="240" />
            </Array>
          </mxGeometry>
        </mxCell>
        <mxCell id="ZUl6cm57hjfB8yTvaPR6-5" value="OUTPUT DATA" style="rounded=0;whiteSpace=wrap;html=1;fillColor=#fff2cc;strokeColor=#d6b656;" vertex="1" parent="1">
          <mxGeometry x="650" y="380" width="120" height="40" as="geometry" />
        </mxCell>
        <mxCell id="ZUl6cm57hjfB8yTvaPR6-12" style="edgeStyle=orthogonalEdgeStyle;rounded=0;orthogonalLoop=1;jettySize=auto;html=1;exitX=1;exitY=0.5;exitDx=0;exitDy=0;" edge="1" parent="1" source="ZUl6cm57hjfB8yTvaPR6-7" target="ZUl6cm57hjfB8yTvaPR6-2">
          <mxGeometry relative="1" as="geometry" />
        </mxCell>
        <mxCell id="ZUl6cm57hjfB8yTvaPR6-7" value="&lt;font style=&quot;font-size: 20px;&quot;&gt;INPUT DEVICE&lt;/font&gt;" style="rounded=0;whiteSpace=wrap;html=1;fillColor=#d5e8d4;strokeColor=#82b366;" vertex="1" parent="1">
          <mxGeometry x="130" y="360" width="120" height="80" as="geometry" />
        </mxCell>
        <mxCell id="ZUl6cm57hjfB8yTvaPR6-21" style="edgeStyle=orthogonalEdgeStyle;rounded=0;orthogonalLoop=1;jettySize=auto;html=1;exitX=0.75;exitY=0;exitDx=0;exitDy=0;" edge="1" parent="1" source="ZUl6cm57hjfB8yTvaPR6-8" target="ZUl6cm57hjfB8yTvaPR6-5">
          <mxGeometry relative="1" as="geometry" />
        </mxCell>
        <mxCell id="ZUl6cm57hjfB8yTvaPR6-8" value="&lt;font style=&quot;font-size: 20px;&quot;&gt;PROCESSOR&lt;/font&gt;" style="rounded=0;whiteSpace=wrap;html=1;fillColor=#d5e8d4;strokeColor=#82b366;" vertex="1" parent="1">
          <mxGeometry x="320" y="520" width="520" height="80" as="geometry" />
        </mxCell>
        <mxCell id="ZUl6cm57hjfB8yTvaPR6-14" style="edgeStyle=orthogonalEdgeStyle;rounded=0;orthogonalLoop=1;jettySize=auto;html=1;exitX=0;exitY=0.5;exitDx=0;exitDy=0;entryX=0;entryY=0.5;entryDx=0;entryDy=0;" edge="1" parent="1" source="ZUl6cm57hjfB8yTvaPR6-10" target="ZUl6cm57hjfB8yTvaPR6-2">
          <mxGeometry relative="1" as="geometry">
            <Array as="points">
              <mxPoint x="280" y="240" />
              <mxPoint x="280" y="400" />
            </Array>
          </mxGeometry>
        </mxCell>
        <mxCell id="ZUl6cm57hjfB8yTvaPR6-23" style="edgeStyle=orthogonalEdgeStyle;rounded=0;orthogonalLoop=1;jettySize=auto;html=1;exitX=0.5;exitY=1;exitDx=0;exitDy=0;" edge="1" parent="1" source="ZUl6cm57hjfB8yTvaPR6-10" target="ZUl6cm57hjfB8yTvaPR6-3">
          <mxGeometry relative="1" as="geometry" />
        </mxCell>
        <mxCell id="ZUl6cm57hjfB8yTvaPR6-10" value="&lt;font style=&quot;font-size: 20px;&quot;&gt;STORAGE&lt;/font&gt;" style="rounded=0;whiteSpace=wrap;html=1;fillColor=#d5e8d4;strokeColor=#82b366;" vertex="1" parent="1">
          <mxGeometry x="320" y="200" width="520" height="80" as="geometry" />
        </mxCell>
        <mxCell id="ZUl6cm57hjfB8yTvaPR6-11" value="&lt;font style=&quot;font-size: 20px;&quot;&gt;OUTPUT DEVICE&lt;/font&gt;" style="rounded=0;whiteSpace=wrap;html=1;fillColor=#d5e8d4;strokeColor=#82b366;" vertex="1" parent="1">
          <mxGeometry x="920" y="360" width="120" height="80" as="geometry" />
        </mxCell>
        <mxCell id="ZUl6cm57hjfB8yTvaPR6-22" value="&lt;font style=&quot;font-size: 20px;&quot;&gt;MEMORY&lt;/font&gt;" style="text;html=1;align=left;verticalAlign=middle;whiteSpace=wrap;rounded=0;" vertex="1" parent="1">
          <mxGeometry x="320" y="320" width="130" height="30" as="geometry" />
        </mxCell>
      </root>
    </mxGraphModel>
  </diagram>
</mxfile>
